# xmcd
#
# Track frame offsets:
#	150
#	14775
#	32462
#	48120
#	65952
#	84245
#	98100
#	112435
#	128320
#	141890
#	156055
#	172835
#	186124
#	199956
#	214114
#	227854
#	241514
#	255551
#	269326
#	284141
#	299208
#	309741
#	324058
#	337141
#
# Disc length: 4704 seconds
#
# Revision: 1
# Processed by: cddbd v1.4PL0 Copyright (c) Steve Scherf et al.
# Submitted via: EasyCDDAExtractor 6.0.0.1
#
DISCID=6a125e18
DTITLE=Doris Day - Andre Previn Duet/Young Man With A Horn
DYEAR=2001
DGENRE=Blues
TTITLE0=Close Your Eyes
TTITLE1=Fools Rush In (Where Angels Fear To Tread)
TTITLE2=Yes
TTITLE3=Nobody's Heart
TTITLE4=Remind Me
TTITLE5=Who Are We To Say (Obey Your Heart)
TTITLE6=Daydreaming
TTITLE7=Give Me Time
TTITLE8=Control Yourself
TTITLE9=Wait Till You See Him
TTITLE10=My One And Only Love
TTITLE11=Falling In Love Again
TTITLE12=I May Be Wrong
TTITLE13=The Man I Love
TTITLE14=The Very Thought Of You
TTITLE15=Pretty Baby
TTITLE16=Melancholy Rhapsody
TTITLE17=Would I Love You
TTITLE18=Too Marvelous For Words
TTITLE19=I Only Have Eyes For You
TTITLE20=Limehouse Blues
TTITLE21=With A Song In My Heart
TTITLE22=Lullaby Of Broadway
TTITLE23=Moanin' Low
EXTD=
EXTT0=
EXTT1=
EXTT2=
EXTT3=
EXTT4=
EXTT5=
EXTT6=
EXTT7=
EXTT8=
EXTT9=
EXTT10=
EXTT11=
EXTT12=
EXTT13=
EXTT14=
EXTT15=
EXTT16=
EXTT17=
EXTT18=
EXTT19=
EXTT20=
EXTT21=
EXTT22=
EXTT23=
PLAYORDER=
